<svg xmlns="http://www.w3.org/2000/svg" width="400" height="300" viewBox="0 0 400 300">
  <!-- Fondo -->
  <rect width="400" height="300" fill="#f8fafc"/>
  
  <!-- Marco principal más pequeño -->
  <rect x="170" y="120" width="60" height="50" rx="4" fill="none" stroke="#cbd5e1" stroke-width="1.5"/>
  
  <!-- Montañas de fondo más pequeñas -->
  <path d="M180 155 L185 145 L190 150 L195 140 L200 148 L205 138 L210 145 L215 142 L220 155 Z" 
        fill="#e2e8f0" stroke="none"/>
  
  <!-- Montaña principal más pequeña -->
  <path d="M185 155 L200 140 L215 155 Z" fill="#cbd5e1"/>
  
  <!-- Sol más pequeño en blanco y negro -->
  <circle cx="215" cy="130" r="5" fill="#e2e8f0" stroke="#cbd5e1" stroke-width="1"/>
  
  <!-- Rayos del sol más cortos en blanco y negro -->
  <g stroke="#cbd5e1" stroke-width="0.8" stroke-linecap="round">
    <line x1="215" y1="122" x2="215" y2="124"/>
    <line x1="223" y1="130" x2="221" y2="130"/>
    <line x1="220" y1="125" x2="219" y2="126"/>
    <line x1="220" y1="135" x2="219" y2="134"/>
    <line x1="210" y1="125" x2="211" y2="126"/>
    <line x1="210" y1="135" x2="211" y2="134"/>
    <line x1="207" y1="130" x2="209" y2="130"/>
    <line x1="215" y1="138" x2="215" y2="136"/>
  </g>
  
  <!-- Nubes más pequeñas -->
  <g fill="#e2e8f0">
    <ellipse cx="185" cy="128" rx="5" ry="2.5"/>
    <ellipse cx="189" cy="126" rx="4" ry="2"/>
    <ellipse cx="193" cy="128" rx="3" ry="2"/>
  </g>
  
  <!-- Texto descriptivo -->
  <text x="200" y="190" text-anchor="middle" font-family="system-ui, sans-serif" font-size="10" fill="#64748b" font-weight="400">
    Imagen no disponible
  </text>
  
</svg>